<svg xmlns="http://www.w3.org/2000/svg" viewBox="0 0 200 200" fill="none">
  <circle cx="100" cy="100" r="92" stroke="#B7D4F9" stroke-width="2.5" />
  <circle cx="100" cy="100" r="74" stroke="#7DB4F6" stroke-width="4" />
  <circle cx="100" cy="100" r="50" fill="url(#circle-gradient)" />
  <path
    d="M99.5 83c-9.5 0-17 7.7-17 17.1 0 9.4 7.5 17.1 17 17.1 9.4 0 17-7.7 17-17.1h-8.3c0 4.9-3.9 8.8-8.7 8.8-4.9 0-8.8-3.9-8.8-8.8s3.9-8.8 8.8-8.8V83Z"
    fill="#E6F0FD"
  />
  <circle cx="55" cy="67" r="5.5" fill="#7DB4F6" />
  <circle cx="141" cy="66" r="4.2" fill="#9AC6F8" />
  <circle cx="55" cy="149" r="4.8" fill="#9AC6F8" />
  <circle cx="155" cy="139" r="6" fill="#7DB4F6" />
  <defs>
    <linearGradient id="circle-gradient" x1="60" y1="50" x2="143" y2="151" gradientUnits="userSpaceOnUse">
      <stop stop-color="#69A8F2" />
      <stop offset="1" stop-color="#3F85E9" />
    </linearGradient>
  </defs>
</svg>
